<?xml version="1.0" encoding="UTF-8"?>
<svg id="_레이어_2" data-name="레이어 2" xmlns="http://www.w3.org/2000/svg" viewBox="0 0 74 74">
  <defs>
    <style>
      .cls-1 {
        fill: #fff;
      }

      .cls-1, .cls-2, .cls-3 {
        stroke: #000;
        stroke-linecap: round;
        stroke-linejoin: round;
        stroke-width: 4px;
      }

      .cls-2 {
        fill: #f17495;
      }

      .cls-3 {
        fill: #fbeae2;
      }
    </style>
  </defs>
  <g id="OBJECTS">
    <g>
      <polyline class="cls-1" points="32.05 2 2 25.73 2 72 72 72 72 25.73 41.95 2"/>
      <rect class="cls-3" x="10" y="2" width="54" height="70"/>
      <polygon class="cls-1" points="2 26.02 2 72 72 72 72 26.02 37 53.66 2 26.02"/>
      <path class="cls-1" d="M2,72l33.98-22.46c.62-.41,1.43-.41,2.05,0l33.98,22.46H2Z"/>
      <path class="cls-2" d="M50.36,25.04c1.34-1.85,1.97-4.31,1.47-6.92-.64-3.32-3.21-5.96-6.32-6.52-3.76-.68-7.13,1.52-8.52,4.87h0s0,0,0,0c-1.42-3.33-4.8-5.5-8.56-4.8-3.13.59-5.7,3.29-6.28,6.64-.47,2.66.23,5.14,1.64,6.98h0,0c.21.28.43.53.67.78l12.67,14.5,12.36-14.52c.31-.31.59-.64.85-1h0s0-.01,0-.01Z"/>
    </g>
  </g>
</svg>