<?xml version="1.0" encoding="UTF-8"?>
<svg id="_레이어_2" data-name="레이어 2" xmlns="http://www.w3.org/2000/svg" viewBox="0 0 130.48 110.18">
  <defs>
    <style>
      .cls-1 {
        fill: #fcb3cb;
      }

      .cls-2 {
        fill: #dfe5f3;
      }

      .cls-3 {
        fill: #fff;
      }

      .cls-4 {
        fill: #fef061;
      }

      .cls-5 {
        fill: #9b465f;
      }
    </style>
  </defs>
  <g id="OBJECT">
    <g>
      <path class="cls-4" d="M14.97,82.86c-1.53,2.54-1.49,5.56-.2,7.97.16.31-.04.68-.39.7-2.73.2-5.29,1.78-6.63,4.43-1.91,3.79-.52,8.47,3.14,10.61,2.37,1.39,5.14,1.43,7.45.37.74-.34,1.51-.59,2.29-.79l11.67-3.04c1.45-.38,2.29-1.89,1.83-3.32l-3.67-11.49c-.25-.77-.45-1.56-.56-2.36-.34-2.51-1.86-4.84-4.3-6.1-3.76-1.95-8.46-.62-10.64,3.02Z"/>
      <path class="cls-2" d="M127.86,20.17c-1.99-1.56-4.53-1.85-6.71-1.02-.28.11-.57-.11-.55-.4.12-2.32-.94-4.66-3.04-6.07-2.99-2.01-7.1-1.34-9.29,1.52-1.42,1.86-1.75,4.19-1.11,6.25.21.66.34,1.34.43,2.02l1.33,10.18c.16,1.26,1.36,2.13,2.61,1.9l10.09-1.88c.68-.13,1.36-.21,2.05-.22,2.16-.02,4.28-1.05,5.61-2.98,2.05-2.97,1.42-7.08-1.42-9.31Z"/>
      <path class="cls-2" d="M11.56,23.09c-1.84,1.11-2.85,3.05-2.85,5.04,0,.25-.26.42-.49.32-1.82-.8-4-.66-5.76.58-2.51,1.78-3.22,5.25-1.6,7.87,1.05,1.7,2.81,2.67,4.65,2.78.59.04,1.17.14,1.74.27l8.51,2.03c1.06.25,2.11-.44,2.3-1.51l1.56-8.61c.1-.58.25-1.15.45-1.7.64-1.73.46-3.73-.67-5.37-1.75-2.53-5.21-3.28-7.85-1.7Z"/>
      <path class="cls-4" d="M117.59,88.66c-.7-1.79-2.26-2.97-4.01-3.27-.22-.04-.33-.29-.21-.48.98-1.48,1.18-3.42.35-5.16-1.19-2.48-4.14-3.63-6.69-2.6-1.65.67-2.77,2.07-3.15,3.68-.12.51-.3,1.01-.5,1.49l-3.07,7.19c-.38.89.07,1.92.98,2.26l7.35,2.67c.49.18.98.39,1.43.65,1.43.82,3.22.97,4.84.21,2.49-1.16,3.68-4.1,2.68-6.66Z"/>
      <path class="cls-4" d="M60.31.04c-2.72.29-4.91,2-5.97,4.29-.14.29-.52.35-.73.11-1.67-1.89-4.26-2.9-6.95-2.4-3.84.71-6.51,4.33-6.05,8.21.3,2.52,1.82,4.58,3.88,5.68.66.35,1.27.78,1.86,1.24l8.73,6.88c1.08.86,2.66.62,3.46-.51l6.4-9.09c.43-.61.9-1.2,1.43-1.72,1.66-1.65,2.52-4.06,2.09-6.56-.66-3.85-4.26-6.56-8.14-6.14Z"/>
      <g>
        <g>
          <path class="cls-1" d="M109.89,54.53c-.31-11.08-9.19-20.29-20.26-20.97-12.58-.78-23.03,9.19-23.03,21.6,0-12.41-10.45-22.38-23.03-21.6-11.06.69-19.94,9.9-20.26,20.97-.18,6.44,2.45,12.26,6.75,16.34,1.32,1.25,2.64,2.48,3.89,3.8l30.91,32.65c.94.99,2.53.99,3.47,0l30.91-32.65c1.25-1.32,2.57-2.55,3.89-3.8,4.3-4.08,6.93-9.9,6.75-16.34Z"/>
          <path class="cls-5" d="M66.61,110.18c-1.23,0-2.42-.51-3.27-1.41l-30.91-32.65c-1.06-1.12-2.17-2.17-3.34-3.28l-.47-.44c-4.9-4.64-7.6-11.18-7.41-17.93.34-12.16,10.11-22.27,22.24-23.03,6.64-.4,12.95,1.86,17.78,6.4,2.28,2.15,4.1,4.72,5.37,7.53,1.27-2.82,3.09-5.39,5.37-7.53,4.83-4.54,11.14-6.81,17.78-6.4,12.13.75,21.9,10.87,22.24,23.03.19,6.75-2.51,13.29-7.41,17.93l-.47.45c-1.17,1.11-2.28,2.15-3.34,3.27l-30.91,32.65c-.85.89-2.04,1.41-3.27,1.41ZM44.98,35.63c-.42,0-.84.01-1.26.04-11.43.71-20.3,11.54-17.88,23.41.83,4.04,2.99,7.69,5.99,10.52l.17.16c1.16,1.1,2.37,2.24,3.51,3.44l30.91,32.65c.11.11.29.11.39,0l30.91-32.65c1.14-1.2,2.34-2.34,3.5-3.44l.47-.45c4.03-3.82,6.25-9.19,6.09-14.74h0c-.28-9.99-8.31-18.3-18.27-18.92-5.45-.33-10.65,1.53-14.62,5.26-3.48,3.27-5.59,7.57-6.06,12.25-.11,1.12-1.02,1.98-2.14,1.98h-.15c-1.12,0-2.03-.87-2.14-1.98-.46-4.68-2.58-8.98-6.06-12.25-3.66-3.44-8.37-5.3-13.36-5.3Z"/>
        </g>
        <path class="cls-3" d="M54.79,48.43c-1.22-1.78-2.9-3.19-4.85-4.09-.93-.43-1.38-1.5-1.09-2.49h0c.36-1.24,1.75-1.88,2.92-1.33,2.6,1.21,4.84,3.1,6.47,5.46.74,1.06.35,2.54-.81,3.11h0c-.92.45-2.06.19-2.64-.66Z"/>
        <path class="cls-3" d="M35.68,65.41c-.87.96-2.4.92-3.21-.09-1.52-1.89-2.65-4.07-3.21-6.44-2.15-9.15,3.87-17.66,12.26-19.5,1.26-.28,2.46.66,2.54,1.95h0c.06,1.03-.63,1.97-1.64,2.19-6.26,1.37-10.74,7.79-8.98,14.63.43,1.67,1.24,3.2,2.33,4.53.65.8.61,1.96-.09,2.73h0Z"/>
        <path class="cls-3" d="M66.61,98.06h0c-.85-.8-.89-2.14-.08-2.99l24.19-25.56c.8-.85,2.14-.89,2.99-.08h0c.85.8.89,2.14.08,2.99l-24.19,25.56c-.8.85-2.14.89-2.99.08Z"/>
        <path class="cls-3" d="M97.79,65.22h0c-.71-.75-.8-1.91-.16-2.72,1.36-1.72,2.2-3.76,2.46-5.94.12-1.02,1-1.78,2.03-1.81h0c1.29-.04,2.32,1.09,2.17,2.37-.35,2.92-1.47,5.64-3.29,7.95-.8,1.02-2.32,1.09-3.21.15Z"/>
      </g>
    </g>
  </g>
</svg>