<?xml version="1.0" encoding="UTF-8"?>
<svg id="_레이어_1" data-name="레이어 1" xmlns="http://www.w3.org/2000/svg" viewBox="0 0 12 12">
  <defs>
    <style>
      .cls-1 {
        fill: #cd5c5c;
      }
    </style>
  </defs>
  <path class="cls-1" d="M6,12c-.28,0-.5-.22-.5-.5,0-2.76-1.57-5-3.5-5-.28,0-.5-.22-.5-.5s.22-.5.5-.5c1.93,0,3.5-2.24,3.5-5,0-.28.22-.5.5-.5s.5.22.5.5c0,2.76,1.57,5,3.5,5,.28,0,.5.22.5.5s-.22.5-.5.5c-1.93,0-3.5,2.24-3.5,5,0,.28-.22.5-.5.5ZM3.8,6c.95.55,1.73,1.53,2.2,2.75.47-1.22,1.25-2.2,2.2-2.75-.95-.55-1.73-1.53-2.2-2.75-.47,1.22-1.25,2.2-2.2,2.75Z"/>
</svg>